PathFileType	4	(X/Y/Z)	19_2_55_p0_0-288.trc
DataRate	CameraRate	NumFrames	NumMarkers	Units	OrigDataRate	OrigDataStartFrame	OrigNumFrames
60.0	60.0	7	27	m	60.0	108	289
Frame#	Time	RHip			RKnee			RAnkle			RBigToe			RSmallToe			RHeel			LHip			LKnee			LAnkle			LBigToe			LSmallToe			LHeel			Neck			Head			Nose			RShoulder			RElbow			RWrist			RThumb			RIndex			RPinky			LShoulder			LElbow			LWrist			LThumb			LIndex			LPinky			
		X1	Y1	Z1	X2	Y2	Z2	X3	Y3	Z3	X4	Y4	Z4	X5	Y5	Z5	X6	Y6	Z6	X7	Y7	Z7	X8	Y8	Z8	X9	Y9	Z9	X10	Y10	Z10	X11	Y11	Z11	X12	Y12	Z12	X13	Y13	Z13	X14	Y14	Z14	X15	Y15	Z15	X16	Y16	Z16	X17	Y17	Z17	X18	Y18	Z18	X19	Y19	Z19	X20	Y20	Z20	X21	Y21	Z21	X22	Y22	Z22	X23	Y23	Z23	X24	Y24	Z24	X25	Y25	Z25	X26	Y26	Z26	X27	Y27	Z27	
108	1.8	0.3024661363134929	0.5660325762837607	0.8886012404912543	0.28446923991233725	0.5154254556626251	1.29124394770437	0.2953273995165582	0.5771617455898608	1.7265956516693457	0.27895411215724897	0.39919862238134785	1.748016636975453	0.35589225719232476	0.407719036420438	1.7389357445834566	0.25500223178235487	0.6536081487056706	1.7997385198841749	0.09612599218692987	0.5370892779897163	0.8437956983762708	0.10196447745028113	0.478580139563074	1.2717176035723627	0.07290466596338707	0.5479048261461694	1.7135433028759333	0.11228549422290779	0.31916210420332697	1.7008538760728191	0.046425697403142376	0.3921191489328848	1.7416633976845484	0.10057479348502306	0.6369568819967197	1.8093286032254066	0.31855980981175247	0.4921117382761101	0.334935927667942	0.394757359378239	0.4024016512860473	0.09292186874862841	0.4121002411486816	0.3442960200832185	0.23185478927281541	0.4532240432958027	0.5088765329116464	0.42632754901065956	0.5258252873231665	0.49075925572405016	0.6451636090491866	0.5349731050201316	0.2941960025259227	0.6287401629037653	0.5128425473793828	0.18819616704329828	0.5805053087719146	0.5258681363008775	0.14274791433966458	0.5881192972918601	0.5225548461190126	0.14038782536187286	0.6342758310781482	0.1439859437954743	0.5232715222856938	0.33232870145542215	0.00015707586905367712	0.6556075911631365	0.4693626048856675	0.04512728118232199	0.49906600333768164	0.547646234848908	0.11928360360610166	0.46016496081601344	0.6005193282175777	0.09184226377425661	0.4116035721249192	0.5978856549659127	0.04216575469307513	0.48721007423103957	0.6351750536080534
109	1.8166666666666667	0.3028679403677822	0.5648545887588492	0.8925485813098357	0.28539031985039937	0.5165920636547477	1.296053962411505	0.2953655515836707	0.5775403190610036	1.72691740697441	0.278737894839024	0.3991184264344578	1.7475813763054906	0.35576712940398725	0.4078018213701023	1.7387216038545146	0.25959593904923955	0.6564776760088279	1.8012467625684292	0.0964912598075646	0.5360638577404905	0.8477690507311099	0.1021883037885998	0.4779374815716219	1.2715772502900877	0.07291861595502343	0.5478046950430175	1.7135047052896097	0.11222527371371167	0.31921459246108486	1.700827315203771	0.04642620879313309	0.39215522159226507	1.7415966019436082	0.10141010975938418	0.638680732481816	1.8150449165856155	0.318853687732511	0.4920840826533743	0.3350496294692201	0.3990185751045686	0.3908397401575716	0.09187185428372245	0.4120363495329346	0.343910210655563	0.22874915983296393	0.45230723836939174	0.5321767766328244	0.43087874454300135	0.5074986867351851	0.548440057783688	0.6668939522611634	0.5272235044432342	0.3268551792420525	0.6678627861782553	0.5175538553881213	0.18431892085282867	0.5959083367369015	0.5132852777250839	0.1853459573482907	0.6366524529572782	0.5067718414425864	0.1946237308933367	0.6661498725048838	0.1437685237042876	0.5225846953670483	0.3356656120745135	-0.00255146872172439	0.631018078642993	0.4646333085290728	0.04318478445886745	0.48595587573972066	0.5335690256806312	0.121154815129688	0.45068820382624364	0.5973687356994863	0.09993109916207714	0.39222494774004457	0.5855977345536996	0.05094050056454509	0.45215750149514433	0.612605494146056
110	1.8333333333333333	0.3051425748496774	0.5769491250942155	0.900571453658935	0.28541467592278785	0.5164647042991907	1.2962001340290945	0.2953426236127602	0.5774503342314278	1.7268932658511011	0.2797561712549033	0.39882521697177825	1.7428130520477552	0.34849514956337024	0.4112316104562641	1.7420277127584696	0.2552881553182951	0.6543258381243846	1.800444343816413	0.10056305253831593	0.5111546689221166	0.8477841738523453	0.1021196253232878	0.4780287058267897	1.2717591822356769	0.08200012002336768	0.548679989511752	1.7184873859740717	0.10658117551167956	0.33199236843267627	1.7098729105545818	0.04641002158457009	0.39214529059346415	1.741554123444114	0.10160506343778078	0.6384862198639497	1.815514324669262	0.3189645706063085	0.4922171514071646	0.3350516176200049	0.3950441327766727	0.40195331620074976	0.09601327758597683	0.41216935591680565	0.34385808668216733	0.22878886011393496	0.4555924502431652	0.5437176543767732	0.4333471453166692	0.4902291890536259	0.5883520824480766	0.6783524622581353	0.5083576575628195	0.3672375838653259	0.6924453757528725	0.5038964437371806	0.21454568390068232	0.6508128257848923	0.5062645996051623	0.1956297357801148	0.6593940185875257	0.5048091955078475	0.20052901176626328	0.6903942520579464	0.1438511089810193	0.5223097185886604	0.33575119031928474	-0.005423401021088145	0.6060180003637318	0.4596805038676264	0.05290720324277957	0.4474914683720818	0.5172955507061993	0.13968553665080619	0.43095087638316865	0.5870511459078827	0.11583241524590208	0.39755791377506067	0.5855337811021953	0.06106701614636239	0.4170609997270884	0.59790955605994
111	1.85	0.3052197954590483	0.5769974702254039	0.9005013217690435	0.28961311544230967	0.5196611977676283	1.2972956276035137	0.29518535888680586	0.57793666735812	1.7273483485216319	0.2798385636018887	0.39858068096349825	1.7422848485762934	0.3494601108540834	0.411691150021448	1.7373968294211062	0.25612647354789897	0.6558960789741587	1.8065832714348768	0.10916811508787942	0.5110012253796987	0.8436587716259248	0.1085670997407914	0.46431509219844064	1.2647299484238785	0.08086554930181038	0.5483840112553867	1.7234244705632025	0.10764560746390736	0.3321706094264984	1.7054787635580309	0.04751948607210733	0.39233306785583	1.7371268163997315	0.10172660728822087	0.6374947273740795	1.815685780858939	0.32547893736511063	0.5046199143423494	0.3370364688944591	0.3978270400950016	0.41158080327612473	0.09670191317578623	0.4122659838005953	0.3437906396704538	0.22872904434004987	0.4631903588469544	0.5568882440284078	0.4396484687716923	0.4891166670785854	0.5890260481707189	0.6746810172973678	0.5008602787222313	0.37715003725175134	0.7112048835798094	0.5058299819582023	0.21557831087425386	0.6693103648718559	0.5063133609779583	0.21340270146083798	0.6798683429738858	0.5011248978035004	0.23057416941820424	0.7223794504640765	0.14881742523377647	0.5097188433090338	0.3371762953436976	-0.010314061149026197	0.5984057945036162	0.45222913539099613	0.06019857495213827	0.4464204052215078	0.5064327913839134	0.1492011485628957	0.41943611427030536	0.5824193720929806	0.13071587113753538	0.3568106817886651	0.5664974719524616	0.07590795881491082	0.3959252187981899	0.5803069270812368
112	1.8666666666666667	0.30516951740656495	0.5771891274744221	0.9006869863237393	0.28974683802330914	0.5199375651569484	1.2976359895329694	0.29525208619033355	0.5782891825562346	1.727628043574058	0.2799803790337349	0.39864230161785746	1.7432402579788835	0.351880462074844	0.42223717367205016	1.7449482353231376	0.25551785596870424	0.6580296292692789	1.8138065611804859	0.10109141130208714	0.5100227369596033	0.8515438603274228	0.10869058846697127	0.46417862682280286	1.2647402530567424	0.08080916228745479	0.5484188894681412	1.723483660308962	0.1131893180848566	0.3198953665198378	1.6964879323392026	0.0537527742251895	0.3798727731717054	1.7280200411060591	0.10180595597189666	0.6378995734046297	1.8160298300247877	0.32554107187357106	0.5045167221611088	0.33704202401659294	0.39771008223794707	0.41215432716292016	0.09345733093981597	0.41234761961993915	0.3436671769068044	0.22860197949615235	0.46668316573422547	0.5684587476080468	0.44189746451344275	0.4762235931866679	0.6187533515527176	0.6828171043170195	0.5002869671654612	0.3995857805256994	0.7224035759213464	0.4992900254168924	0.22487813867163348	0.6870846277728423	0.5000758318582604	0.23498907704676494	0.7014396668811678	0.486492221639498	0.28302356602824114	0.7566924775633276	0.15501954492683548	0.5240028033676987	0.3392295645069768	-0.005227371661396516	0.5813431370166942	0.4425411307506708	0.06432966555311091	0.42345975915710443	0.4967783194699549	0.14890560867753486	0.41837193236448805	0.5748174866702868	0.13310152254820168	0.3921657467022997	0.5709816928876777	0.07735197876782182	0.3968005954081288	0.5713625558388473
113	1.8833333333333333	0.3058281956700459	0.5788831021347978	0.905436396225158	0.29052621937351586	0.5212520345933688	1.3023031657396782	0.2953254833500492	0.5778503555173743	1.7272403292848777	0.2798919196526643	0.3986180405383422	1.7426028568961924	0.3513325251500285	0.4243004057099937	1.7407593527740484	0.2564514179971969	0.6571258102687743	1.8077914885477453	0.10072458927294604	0.5116009043843273	0.8482270226153159	0.10870316277432207	0.464218311470911	1.2646302038305928	0.07883575447532008	0.5349809622807453	1.7153315179568598	0.11317974304018749	0.31967922023175227	1.696175872996899	0.053842068311205325	0.3795494018283401	1.727842873142656	0.10171326965573219	0.6375977034063994	1.815778880537533	0.32558998745674295	0.5048864098353254	0.33700797848128433	0.40167315295270456	0.3998429206962281	0.09231599513867793	0.4161180627394724	0.33233563998525123	0.2269876561289984	0.46713203227430544	0.5699184712182237	0.44553301861527606	0.46526801419157077	0.6493543774533754	0.6824450587083465	0.49122836864167013	0.4281433519722548	0.7281042939018845	0.47836164316899155	0.291730093779257	0.7253054104196739	0.47728093957058504	0.2949030338407726	0.7450457085088432	0.4780366929001282	0.3193755583064592	0.7813394641138938	0.1572056154602838	0.5355427257334303	0.34105872667064335	-0.017211187310716483	0.5740466030833422	0.4312815839347289	0.0691872257989118	0.4250221864711471	0.484182130379496	0.15402019242016493	0.4071657063211309	0.559444982744324	0.143384718096633	0.38348292481735446	0.5592398301308074	0.0824630771691989	0.398599320479231	0.5659832130366866
114	1.9	0.30639681692779636	0.579005068604221	0.9017726538868062	0.2939977420357007	0.5320971385312705	1.3116669645794483	0.2952792511303092	0.5777958047472783	1.7272488180482695	0.2851553071814024	0.3838697132330935	1.7321049147274086	0.35348785924377196	0.3981640361228497	1.7229073049992878	0.25549910746085047	0.6573236664784597	1.8133337896450579	0.1011051009077401	0.5102073875654598	0.851636460752373	0.10956765779081523	0.46424520792748347	1.2607239988843513	0.07807474033808298	0.533637447995539	1.7095125928162467	0.1130834375915519	0.3200314877761887	1.6962402095848734	0.05373472967054846	0.37984183232612706	1.7279115990379181	0.10170663848219262	0.6374762641009752	1.8158015037439537	0.32575048355829417	0.5051321266530572	0.336999857492945	0.39776284455035066	0.41146858993248486	0.09675720432608821	0.41211885421073513	0.3444607784426003	0.22505906735344608	0.4704579326762259	0.5825069568575458	0.4474203031319448	0.44281899347700127	0.6785701923535986	0.6884972938483469	0.47008399222534664	0.4803836433940463	0.7495389472610715	0.47157193760503047	0.3173363532648404	0.7494889260104922	0.47768038970554877	0.31979680344997585	0.7606235883614567	0.478399562623223	0.3420527749762265	0.7906806253126769	0.16436082368312535	0.5340414425226062	0.34411470417863843	-0.023530485459372284	0.5506080183761927	0.41974228910428524	0.06946804942251412	0.42656055848847896	0.47347898587239745	0.15904498590002203	0.408742053198165	0.5555052681574104	0.1608793354397081	0.37372697501426794	0.545875489044275	0.0865525783742664	0.4005352131107056	0.5536741567908902
